<svg width="41" height="40" viewBox="0 0 41 40" fill="none" xmlns="http://www.w3.org/2000/svg">
<path d="M11.9555 14.8485C11.2879 14.8485 10.8078 14.2069 10.9961 13.5664L11.6225 11.4358C11.8728 10.5846 12.654 10 13.5413 10H33.5C34.1676 10 34.6477 10.6416 34.4594 11.2821L33.833 13.4126C33.5827 14.2639 32.8015 14.8485 31.9142 14.8485H11.9555Z" fill="#3A83F1"/>
<path d="M11.3139 17.5758C10.4266 17.5758 9.64539 18.1604 9.3951 19.0116L8.76868 21.1422C8.58037 21.7826 9.0605 22.4242 9.72807 22.4242H29.6868C30.574 22.4242 31.3552 21.8397 31.6055 20.9884L32.232 18.8578C32.4203 18.2174 31.9401 17.5758 31.2726 17.5758H11.3139Z" fill="#3A83F1"/>
<path d="M7.50064 30C6.83307 30 6.35294 29.3584 6.54125 28.7179L7.16767 26.5874C7.41796 25.7361 8.19917 25.1515 9.08645 25.1515H29.0451C29.7127 25.1515 30.1928 25.7931 30.0045 26.4336L29.3781 28.5642C29.1278 29.4154 28.3466 30 27.4593 30H7.50064Z" fill="#3A83F1"/>
</svg>
