<svg width="124" height="109" viewBox="0 0 124 109" fill="none" xmlns="http://www.w3.org/2000/svg">
<g clip-path="url(#clip0_537_8658)">
<path d="M163.98 117H18V96.2033L35.0994 88.4751C43.748 84.5662 53.4444 83.5156 62.7467 85.4794L64.0106 85.7462C67.3737 86.4562 70.8476 85.1885 72.9631 82.4794L77.7973 76.2886C85.6955 66.174 98.0888 60.4842 111.018 61.0369C127.039 61.7216 141.075 71.8334 146.614 86.6807L146.63 86.7225L165 89.3983L163.98 117Z" fill="url(#paint0_linear_537_8658)"/>
<circle cx="43.5" cy="46.5" r="30.5" transform="rotate(-180 43.5 46.5)" stroke="#EBF3FE" stroke-width="4"/>
<path d="M41.955 16.0742C41.898 14.9517 42.7625 13.9889 43.8863 14.0022C50.7529 14.0836 57.4198 16.3393 62.9252 20.444C63.8262 21.1158 63.9285 22.4057 63.2016 23.2629V23.2629C62.4748 24.1201 61.1947 24.2193 60.2877 23.5556C55.5802 20.111 49.9245 18.1975 44.0926 18.0761C42.9689 18.0527 42.012 17.1966 41.955 16.0742V16.0742Z" fill="#3A83F1"/>
<path d="M24.2627 44.2148H27.2705C27.2705 42.7217 28.4414 41.6797 29.9883 41.6797C31.3848 41.6797 32.3408 42.625 32.3408 43.8711C32.3408 44.9453 31.9004 45.6865 29.9346 47.5771L24.4453 52.7764V55H35.7139V52.4219H28.6885V52.3574L31.9434 49.2422C34.5645 46.7393 35.499 45.5684 35.499 43.667C35.499 41.0889 33.3076 39.1553 29.9883 39.1553C26.626 39.1553 24.2627 41.2285 24.2627 44.2148ZM43.7812 55.3438C47.7129 55.3438 50.0977 52.2178 50.0977 47.2119C50.0977 42.2061 47.6914 39.1445 43.7812 39.1445C39.8711 39.1445 37.4541 42.2168 37.4541 47.2227C37.4541 52.2393 39.8496 55.3438 43.7812 55.3438ZM43.7812 52.7441C41.8691 52.7441 40.752 50.7783 40.752 47.2227C40.752 43.6992 41.8906 41.7441 43.7812 41.7441C45.6826 41.7441 46.7998 43.6885 46.7998 47.2227C46.7998 50.7783 45.6934 52.7441 43.7812 52.7441Z" fill="#3A83F1"/>
<path d="M54.3926 49.6611C55.6367 49.6611 56.4639 48.7314 56.4639 47.3438C56.4639 45.9492 55.6367 45.0195 54.3926 45.0195C53.1484 45.0195 52.3145 45.9492 52.3145 47.3438C52.3145 48.7314 53.1484 49.6611 54.3926 49.6611ZM54.5908 55L61.4541 45.1357H60.3467L53.4697 55H54.5908ZM54.3926 48.8477C53.6816 48.8477 53.2031 48.2461 53.2031 47.3438C53.2031 46.4414 53.6816 45.8398 54.3926 45.8398C55.1035 45.8398 55.5752 46.4414 55.5752 47.3438C55.5752 48.2461 55.1035 48.8477 54.3926 48.8477ZM60.5381 55.1094C61.7822 55.1094 62.6094 54.1797 62.6094 52.792C62.6094 51.3975 61.7822 50.4678 60.5381 50.4678C59.2939 50.4678 58.46 51.3975 58.46 52.792C58.46 54.1797 59.2939 55.1094 60.5381 55.1094ZM60.5381 54.2959C59.8271 54.2959 59.3486 53.6943 59.3486 52.792C59.3486 51.8896 59.8271 51.2881 60.5381 51.2881C61.249 51.2881 61.7207 51.8896 61.7207 52.792C61.7207 53.6943 61.249 54.2959 60.5381 54.2959Z" fill="#3A83F1"/>
</g>
<defs>
<linearGradient id="paint0_linear_537_8658" x1="76.5" y1="61" x2="91.5" y2="117" gradientUnits="userSpaceOnUse">
<stop stop-color="#E0F2FF"/>
<stop offset="1" stop-color="white" stop-opacity="0"/>
</linearGradient>
<clipPath id="clip0_537_8658">
<rect width="124" height="109" fill="white"/>
</clipPath>
</defs>
</svg>
