<svg width="40" height="40" viewBox="0 0 40 40" fill="none" xmlns="http://www.w3.org/2000/svg">
<path d="M7.08873 11.0047C6.73967 10.0278 7.46388 9 8.50127 9H31.2443C32.2815 9 33.0057 10.0274 32.657 11.0043L29.2044 20.6766C28.707 22.0699 27.3874 23 25.9081 23H13.8409C12.3619 23 11.0426 22.0704 10.545 20.6777L7.08873 11.0047Z" fill="black"/>
<path d="M14.8734 28.5C14.8734 29.8807 13.7542 31 12.3734 31C10.9927 31 9.87345 29.8807 9.87345 28.5C9.87345 27.1193 10.9927 26 12.3734 26C13.7542 26 14.8734 27.1193 14.8734 28.5Z" fill="black"/>
<path d="M27.3734 31C28.7542 31 29.8734 29.8807 29.8734 28.5C29.8734 27.1193 28.7542 26 27.3734 26C25.9927 26 24.8734 27.1193 24.8734 28.5C24.8734 29.8807 25.9927 31 27.3734 31Z" fill="black"/>
</svg>
