<svg width="40" height="40" viewBox="0 0 40 40" fill="none" xmlns="http://www.w3.org/2000/svg">
<path d="M11.4554 14.8485C10.7878 14.8485 10.3077 14.2069 10.496 13.5664L11.1224 11.4358C11.3727 10.5846 12.1539 10 13.0412 10H32.9994C33.6669 10 34.1471 10.6416 33.9588 11.2821L33.3323 13.4126C33.0821 14.2639 32.3009 14.8485 31.4136 14.8485H11.4554Z" fill="black"/>
<path d="M10.8138 17.5758C9.92651 17.5758 9.14532 18.1604 8.89504 19.0116L8.26863 21.1422C8.08032 21.7826 8.56044 22.4242 9.228 22.4242H29.1862C30.0735 22.4242 30.8547 21.8396 31.105 20.9884L31.7314 18.8578C31.9197 18.2174 31.4396 17.5758 30.772 17.5758H10.8138Z" fill="black"/>
<path d="M7.00061 30C6.33306 30 5.85294 29.3584 6.04124 28.7179L6.66766 26.5874C6.91794 25.7361 7.69913 25.1515 8.5864 25.1515H28.5446C29.2122 25.1515 29.6923 25.7931 29.504 26.4336L28.8776 28.5642C28.6273 29.4154 27.8461 30 26.9588 30H7.00061Z" fill="black"/>
</svg>
