<svg width="40" height="40" viewBox="0 0 40 40" fill="none" xmlns="http://www.w3.org/2000/svg">
<path fill-rule="evenodd" clip-rule="evenodd" d="M24.8283 30.0011H29.1488V22.0775H24.8283V30.0011Z" fill="#FF5F00"/>
<path fill-rule="evenodd" clip-rule="evenodd" d="M25.1115 26C25.1115 24.4051 25.8501 22.9847 27 22.0691C26.1588 21.3994 25.0977 21 23.9443 21C21.2136 21 19 23.2387 19 26C19 28.7613 21.2136 31 23.9443 31C25.0977 31 26.1588 30.6006 27 29.9309C25.8501 29.0153 25.1115 27.5949 25.1115 26" fill="#EB001B"/>
<path fill-rule="evenodd" clip-rule="evenodd" d="M34.9892 25.9998C34.9892 28.7616 32.7756 31 30.0447 31C28.8912 31 27.8301 30.6005 26.9892 29.9309C28.1392 29.0156 28.8775 27.5948 28.8775 25.9998C28.8775 24.4049 28.1392 22.9844 26.9892 22.0688C27.8301 21.3995 28.8912 21 30.0447 21C32.7756 21 34.9892 23.2384 34.9892 25.9998V25.9998Z" fill="#F79E1B"/>
<mask id="mask0_67_2458" style="mask-type:alpha" maskUnits="userSpaceOnUse" x="1" y="6" width="38" height="28">
<rect x="1" y="6" width="38" height="28" rx="4" fill="black"/>
</mask>
<g mask="url(#mask0_67_2458)">
<path d="M1 12.4C1 10.1598 1 9.03968 1.43597 8.18404C1.81947 7.43139 2.43139 6.81947 3.18404 6.43597C4.03968 6 5.15979 6 7.4 6H32.6C34.8402 6 35.9603 6 36.816 6.43597C37.5686 6.81947 38.1805 7.43139 38.564 8.18404C39 9.03968 39 10.1598 39 12.4V27.6C39 29.8402 39 30.9603 38.564 31.816C38.1805 32.5686 37.5686 33.1805 36.816 33.564C35.9603 34 34.8402 34 32.6 34H7.4C5.15979 34 4.03968 34 3.18404 33.564C2.43139 33.1805 1.81947 32.5686 1.43597 31.816C1 30.9603 1 29.8402 1 27.6V12.4Z" fill="#F0F2F4"/>
<path fill-rule="evenodd" clip-rule="evenodd" d="M27.8485 20.2313C27.8487 19.7211 27.4353 19.3077 26.9251 19.3079L20.9374 19.3102L20.9424 13.3254C20.9428 12.8152 20.5296 12.402 20.0194 12.4024C19.5093 12.4028 19.0954 12.8167 19.0949 13.3269L19.09 19.3109L13.0693 19.3131C12.5592 19.3133 12.1455 19.7271 12.1453 20.2372C12.1451 20.7474 12.5585 21.1608 13.0686 21.1606L19.0885 21.1583L19.0835 27.1827C19.0831 27.6928 19.4963 28.1061 20.0065 28.1056C20.5166 28.1052 20.9305 27.6913 20.931 27.1812L20.9359 21.1576L26.9244 21.1553C27.4346 21.1551 27.8483 20.7414 27.8485 20.2313Z" fill="#3A83F1"/>
</g>
</svg>
