<svg width="38" height="28" viewBox="0 0 38 28" fill="none" xmlns="http://www.w3.org/2000/svg">
<path d="M0 6.4C0 4.15979 0 3.03968 0.435974 2.18404C0.819467 1.43139 1.43139 0.819467 2.18404 0.435974C3.03968 0 4.15979 0 6.4 0H31.6C33.8402 0 34.9603 0 35.816 0.435974C36.5686 0.819467 37.1805 1.43139 37.564 2.18404C38 3.03968 38 4.15979 38 6.4V21.6C38 23.8402 38 24.9603 37.564 25.816C37.1805 26.5686 36.5686 27.1805 35.816 27.564C34.9603 28 33.8402 28 31.6 28H6.4C4.15979 28 3.03968 28 2.18404 27.564C1.43139 27.1805 0.819467 26.5686 0.435974 25.816C0 24.9603 0 23.8402 0 21.6V6.4Z" fill="#F0F2F4"/>
<path fill-rule="evenodd" clip-rule="evenodd" d="M26.8485 14.2313C26.8487 13.7211 26.4353 13.3077 25.9251 13.3079L19.9374 13.3102L19.9424 7.32537C19.9428 6.81521 19.5296 6.40199 19.0194 6.40241C18.5093 6.40283 18.0954 6.81674 18.0949 7.32689L18.09 13.3109L12.0693 13.3131C11.5592 13.3133 11.1455 13.7271 11.1453 14.2372C11.1451 14.7474 11.5585 15.1608 12.0686 15.1606L18.0885 15.1583L18.0835 21.1827C18.0831 21.6928 18.4963 22.1061 19.0065 22.1056C19.5166 22.1052 19.9305 21.6913 19.931 21.1812L19.9359 15.1576L25.9244 15.1553C26.4346 15.1551 26.8483 14.7414 26.8485 14.2313Z" fill="#3A83F1"/>
</svg>
