<svg width="40" height="40" fill="none" xmlns="http://www.w3.org/2000/svg"><mask id="a" style="mask-type:alpha" maskUnits="userSpaceOnUse" x="1" y="6" width="38" height="28"><rect x="1" y="6" width="38" height="28" rx="4" fill="#C4C4C4"/></mask><g mask="url(#a)"><path fill="#5ECF70" d="M1 6h38v28H1z"/></g><path fill-rule="evenodd" clip-rule="evenodd" d="M24.732 22.124l-1.448 6.77h-1.752l1.449-6.77h1.751zm7.368 4.371l.923-2.542.53 2.542H32.1zm1.956 2.399h1.62l-1.416-6.77h-1.494a.797.797 0 0 0-.746.496l-2.628 6.274h1.84l.365-1.011h2.246l.213 1.01zm-4.573-2.21c.008-1.787-2.47-1.886-2.453-2.684.005-.243.237-.501.743-.567.25-.033.942-.059 1.727.302l.307-1.436A4.723 4.723 0 0 0 28.169 22c-1.732 0-2.95.92-2.96 2.238-.01.974.87 1.518 1.533 1.843.683.331.912.544.909.84-.005.455-.545.656-1.048.663-.881.014-1.392-.238-1.799-.427l-.318 1.484c.41.187 1.166.35 1.947.359 1.841 0 3.045-.909 3.05-2.316zm-7.254-4.56l-2.837 6.77H17.54l-1.396-5.403c-.085-.332-.159-.455-.416-.595-.421-.229-1.117-.443-1.728-.576l.041-.196h2.98c.38 0 .722.252.809.69l.737 3.917 1.822-4.607h1.84z" fill="#fff"/></svg>