<svg width="66" height="54" viewBox="0 0 66 54" fill="none" xmlns="http://www.w3.org/2000/svg">
<path d="M19.159 33.7057L9.8331 24.4924C7.75159 22.436 4.43218 22.3456 2.24188 24.2857C-0.0112649 26.2815 -0.266191 29.7082 1.66684 32.0154L18.145 51.6832C20.6116 54.6272 25.1712 54.5245 27.5118 51.4794C40.229 34.9347 49.8708 22.7846 64.5084 7.28261C65.807 5.9074 66.0729 3.84459 65.1482 2.19466C63.8383 -0.142393 60.7302 -0.726348 58.6767 0.994299C45.5664 11.9796 36.8794 20.4746 23.371 33.71C22.2013 34.8561 20.324 34.8567 19.159 33.7057Z" fill="url(#paint0_linear_222_3201)"/>
<defs>
<linearGradient id="paint0_linear_222_3201" x1="55.1796" y1="-3.24107" x2="11.7911" y2="43.2206" gradientUnits="userSpaceOnUse">
<stop stop-color="#28B5FF"/>
<stop offset="1" stop-color="#3A83F1"/>
</linearGradient>
</defs>
</svg>
