<svg width="40" height="40" fill="none" xmlns="http://www.w3.org/2000/svg"><g clip-path="url(#clip0_3_3450)" fill-rule="evenodd" clip-rule="evenodd"><path d="M20 .043c11.039 0 20 8.952 20 19.979S31.039 40 20 40 0 31.049 0 20.022C0 8.995 8.961.043 20 .043z" fill="#24A79F"/><path d="M9.5 26.5v-6.617a4.5 4.5 0 0 1 1.405-3.267l7.032-6.661a3 3 0 0 1 4.126 0l7.032 6.661a4.5 4.5 0 0 1 1.405 3.267V26.5A2.5 2.5 0 0 1 28 29H12a2.5 2.5 0 0 1-2.5-2.5zm9-7a.75.75 0 0 0-.75.75v3c0 .414.336.75.75.75h3a.75.75 0 0 0 .75-.75v-3a.75.75 0 0 0-.75-.75h-3z" fill="#fff"/></g><defs><clipPath id="clip0_3_3450"><path fill="#fff" d="M0 0h40v40H0z"/></clipPath></defs></svg>