<svg width="41" height="40" fill="none" xmlns="http://www.w3.org/2000/svg"><g clip-path="url(#clip0_3_3444)"><path fill-rule="evenodd" clip-rule="evenodd" d="M21 .043c11.039 0 20 8.952 20 19.979S32.039 40 21 40 1 31.049 1 20.022C1 8.995 9.961.043 21 .043z" fill="#5ECF70"/><path d="M10 17.029c0-1.76 0-2.64.343-3.313a3.143 3.143 0 0 1 1.373-1.373C12.388 12 13.268 12 15.029 12H26.97c1.76 0 2.64 0 3.313.343a3.143 3.143 0 0 1 1.373 1.373c.343.672.343 1.552.343 3.313v4.942c0 1.76 0 2.64-.343 3.313a3.143 3.143 0 0 1-1.373 1.373c-.672.343-1.552.343-3.313.343H15.03c-1.76 0-2.64 0-3.313-.343a3.143 3.143 0 0 1-1.373-1.373C10 24.612 10 23.732 10 21.971V17.03z" fill="#fff"/><path fill-rule="evenodd" clip-rule="evenodd" d="M24.913 18.952l-2.651-2.474a.75.75 0 0 0-1.262.548v.822a.5.5 0 0 1-.45.497l-3.854.385a.773.773 0 0 0 0 1.54l3.854.385a.5.5 0 0 1 .45.497v.822a.75.75 0 0 0 1.262.548l2.65-2.474a.75.75 0 0 0 0-1.096z" fill="#1DC78A"/></g><defs><clipPath id="clip0_3_3444"><path fill="#fff" d="M0 0h41v40H0z"/></clipPath></defs></svg>