<svg width="40" height="40" fill="none" xmlns="http://www.w3.org/2000/svg"><g clip-path="url(#clip0_3_3460)" fill-rule="evenodd" clip-rule="evenodd"><path d="M20 .043c11.039 0 20 8.952 20 19.979S31.039 40 20 40 0 31.049 0 20.022C0 8.995 8.961.043 20 .043z" fill="#FF8515"/><path d="M13.526 15.27c.167-1.51.251-2.265.6-2.835a3 3 0 0 1 1.287-1.152C16.017 11 16.777 11 18.296 11h3.408c1.519 0 2.279 0 2.883.283a3 3 0 0 1 1.288 1.152c.348.57.432 1.325.6 2.835l.729 6.565c.102.922.154 1.383.005 1.74a1.5 1.5 0 0 1-.66.738c-.338.187-.802.187-1.73.187H15.18c-.928 0-1.392 0-1.73-.187a1.5 1.5 0 0 1-.66-.737c-.149-.358-.097-.819.005-1.741l.73-6.565zm2.9 4.97c-.03.275.17.525.446.508a2.998 2.998 0 0 0 2.64-1.984 1.121 1.121 0 0 0 .977 0 3.004 3.004 0 0 0 2.639 1.984c.276.017.476-.233.447-.508l-.261-2.486-.262-2.487c-.029-.274-.276-.477-.543-.403a3 3 0 0 0-2.018 1.873 1.12 1.12 0 0 0-.982 0 2.999 2.999 0 0 0-2.018-1.873c-.266-.074-.514.129-.543.403l-.262 2.487-.26 2.486zM13 26a2 2 0 0 0-2 2v1h18v-1a2 2 0 0 0-2-2H13z" fill="#fff"/></g><defs><clipPath id="clip0_3_3460"><path fill="#fff" d="M0 0h40v40H0z"/></clipPath></defs></svg>