<svg width="22" height="15" viewBox="0 0 22 15" fill="none" xmlns="http://www.w3.org/2000/svg">
<path fill-rule="evenodd" clip-rule="evenodd" d="M0.342551 1.71606C0 2.38835 0 3.26844 0 5.0286V9.97146C0 11.7316 0 12.6117 0.342551 13.284C0.643867 13.8754 1.12466 14.3562 1.71603 14.6575C2.38832 15 3.26841 15 5.02857 15H16.9714C18.7316 15 19.6117 15 20.284 14.6575C20.8753 14.3562 21.3561 13.8754 21.6574 13.284C22 12.6117 22 11.7316 22 9.97146V5.0286C22 3.26844 22 2.38835 21.6574 1.71606C21.3561 1.12469 20.8753 0.643898 20.284 0.342581C19.6117 3.05176e-05 18.7316 3.05176e-05 16.9714 3.05176e-05H5.02857C3.26841 3.05176e-05 2.38832 3.05176e-05 1.71603 0.342581C1.12466 0.643898 0.643867 1.12469 0.342551 1.71606ZM12.2617 4.4777L14.9125 6.95177C15.2302 7.24827 15.2302 7.75185 14.9125 8.04835L12.2617 10.5224C11.7823 10.9699 11 10.6299 11 9.97413V9.15253C11 8.89565 10.8054 8.68057 10.5498 8.65501L6.69653 8.26969C6.30112 8.23015 6 7.89742 6 7.50004C6 7.10265 6.30112 6.76992 6.69653 6.73038L10.5498 6.34506C10.8054 6.3195 11 6.10442 11 5.84754V5.02599C11 4.37021 11.7823 4.03025 12.2617 4.4777Z" fill="white"/>
</svg>
