<svg width="12" height="12" viewBox="0 0 12 12" fill="none" xmlns="http://www.w3.org/2000/svg">
<path fill-rule="evenodd" clip-rule="evenodd" d="M4.67704 6.00004L0.530225 1.85322C0.237331 1.56033 0.237332 1.08546 0.530225 0.792564L0.792442 0.530347C1.08534 0.237453 1.56021 0.237453 1.8531 0.530347L5.99992 4.67717L10.1467 0.530424C10.4396 0.237535 10.9145 0.237538 11.2074 0.530429L11.4696 0.792646C11.7625 1.08554 11.7625 1.56042 11.4696 1.85331L7.3228 6.00004L11.4696 10.1468C11.7625 10.4397 11.7625 10.9146 11.4696 11.2075L11.2073 11.4697C10.9145 11.7626 10.4396 11.7626 10.1467 11.4697L5.99992 7.32292L1.85319 11.4697C1.5603 11.7625 1.08542 11.7625 0.792529 11.4697L0.530312 11.2074C0.237419 10.9145 0.237418 10.4397 0.530312 10.1468L4.67704 6.00004Z" fill="#222222"/>
</svg>
