<svg width="24" height="24" fill="none" xmlns="http://www.w3.org/2000/svg"><path fill-rule="evenodd" clip-rule="evenodd" d="M9.226 4.535a1.774 1.774 0 0 1 1.757-1.53h1.913c.875 0 1.62.638 1.754 1.502.173 1.118 1.365 1.79 2.428 1.358a1.774 1.774 0 0 1 2.204.757l.957 1.657a1.774 1.774 0 0 1-.425 2.27c-.881.71-.867 2.077.038 2.782.7.544.89 1.52.447 2.287l-.957 1.657a1.774 1.774 0 0 1-2.177.767 1.863 1.863 0 0 0-2.515 1.452 1.774 1.774 0 0 1-1.754 1.503h-1.913a1.774 1.774 0 0 1-1.758-1.53c-.157-1.137-1.334-1.833-2.39-1.425a1.774 1.774 0 0 1-2.177-.767L3.7 15.618a1.774 1.774 0 0 1 .447-2.287c.905-.705.92-2.073.038-2.782a1.774 1.774 0 0 1-.425-2.27l.957-1.657a1.774 1.774 0 0 1 2.204-.757 1.685 1.685 0 0 0 2.304-1.33zM12 16a4 4 0 1 0 0-8 4 4 0 0 0 0 8z" fill="#7B7E86"/></svg>