<svg width="24" height="24" fill="none" xmlns="http://www.w3.org/2000/svg"><circle cx="12" cy="12" r="12" fill="#3A83F1"/><path fill-rule="evenodd" clip-rule="evenodd" d="M5.7 9.042c0-.554.492-.975 1.045-.939 2.256.15 3.628-.39 5.005-.932 1.52-.599 3.048-1.2 5.783-.88a.88.88 0 0 1 .767.88v6.546c0 .565-.512.99-1.074.933-2.492-.25-3.953.32-5.386.881-1.468.574-2.908 1.137-5.396.793a.874.874 0 0 1-.744-.874V9.042zm8.493 2.273a2.172 2.172 0 1 1-4.344 0 2.172 2.172 0 0 1 4.344 0zm2.682-2.82a.455.455 0 1 0-.91 0v3.767a.455.455 0 1 0 .91 0V8.494zM7.577 9.922c.252 0 .455.204.455.455v3.767a.455.455 0 1 1-.91 0v-3.767c0-.251.204-.455.455-.455z" fill="#fff"/><path d="M17.922 15.662c-2.969-.435-4.636.199-6.2.81l-.048.019c-1.496.585-2.89 1.13-5.417.729a.455.455 0 0 0-.143.899c2.771.44 4.351-.179 5.892-.781l.047-.018c1.507-.59 2.998-1.159 5.738-.758a.455.455 0 1 0 .131-.9z" fill="#fff"/></svg>