<svg width="40" height="40" fill="none" xmlns="http://www.w3.org/2000/svg"><path d="M1 12.4c0-2.24 0-3.36.436-4.216a4 4 0 0 1 1.748-1.748C4.04 6 5.16 6 7.4 6h25.2c2.24 0 3.36 0 4.216.436a4 4 0 0 1 1.748 1.748C39 9.04 39 10.16 39 12.4v15.2c0 2.24 0 3.36-.436 4.216a4 4 0 0 1-1.748 1.748C35.96 34 34.84 34 32.6 34H7.4c-2.24 0-3.36 0-4.216-.436a4 4 0 0 1-1.748-1.748C1 30.96 1 29.84 1 27.6V12.4z" fill="#F0F2F4"/><path fill-rule="evenodd" clip-rule="evenodd" d="M27.849 20.231a.923.923 0 0 0-.924-.923l-5.988.002.005-5.985a.922.922 0 0 0-.923-.923.926.926 0 0 0-.924.925l-.005 5.984-6.02.002a.925.925 0 0 0-.001 1.848l6.02-.003-.005 6.025c0 .51.412.923.922.923s.924-.415.925-.925l.005-6.023 5.988-.003c.51 0 .924-.414.925-.924z" fill="#3A83F1"/></svg>