<svg width="38" height="28" fill="none" xmlns="http://www.w3.org/2000/svg"><mask id="a" style="mask-type:alpha" maskUnits="userSpaceOnUse" x="0" y="0" width="38" height="28"><rect width="38" height="28" rx="4" fill="#C4C4C4"/></mask><g mask="url(#a)"><path fill="#0B1D37" d="M0 0h38v28H0z"/><path fill-rule="evenodd" clip-rule="evenodd" d="M16.5 0l-3.602 11H16.5V0z" fill="#43495C"/><path d="M9.894 0v11h-7.66L5.5 0h4.394zM12.898 11h4.005L20.5 0h-4l-3.602 11zM12 28l3.592-11H8.59v11H12zM5.592 17L2 28h-3V17h6.592z" fill="#2556BF"/><path d="M0 11h2.23L5.5 0H0v11zM5 28l3.585-11v11H5zM13.396 0l-3.5 11V0h3.5z" fill="#0F3993"/></g></svg>