<svg width="100" height="100" fill="none" xmlns="http://www.w3.org/2000/svg"><path fill-rule="evenodd" clip-rule="evenodd" d="M50 24.48l-3.253-2.443a20.51 20.51 0 0 0-12.372-4.12c-11.391 0-20.625 9.234-20.625 20.625 0 10.036 6.35 19.1 14.774 26.599C36.644 72.368 45.81 77.342 50 79.42c4.19-2.079 13.356-7.053 21.476-14.28C79.9 57.642 86.25 48.578 86.25 38.54c0-11.39-9.234-20.624-20.625-20.624a20.51 20.51 0 0 0-12.372 4.12L50 24.481zm0-6.774A25.927 25.927 0 0 0 34.375 12.5c-14.383 0-26.042 11.66-26.042 26.042 0 24.731 31.057 41.698 39.545 45.873a4.75 4.75 0 0 0 4.243 0c8.489-4.175 39.546-21.142 39.546-45.873 0-14.383-11.66-26.042-26.042-26.042A25.927 25.927 0 0 0 50 17.706z" fill="#3A83F1"/></svg>