<svg width="100" height="100" fill="none" xmlns="http://www.w3.org/2000/svg"><g clip-path="url(#clip0_254_4176)"><path d="M28.049 46.378l23.22 23.22-2.977 2.976a4 4 0 0 1-5.657 0L25.072 55.011a4 4 0 0 1 0-5.657l2.977-2.976z" fill="#3179E7"/><mask id="a" style="mask-type:alpha" maskUnits="userSpaceOnUse" x="19" y="14" width="65" height="65"><path d="M83.415 20.16c.408-3.24-2.347-5.995-5.586-5.587l-7.654.965a15 15 0 0 0-8.732 4.276l-6.607 6.606a8.5 8.5 0 0 1-4.835 2.408L24.274 32.42c-4.905.684-6.915 6.682-3.413 10.185l34.523 34.522c3.502 3.502 9.5 1.493 10.185-3.413l3.591-25.727a8.5 8.5 0 0 1 2.408-4.835l6.607-6.607a15 15 0 0 0 4.275-8.731l.965-7.655z" fill="#C4C4C4"/></mask><g mask="url(#a)"><path d="M92.074 21.622L75.342 4.89l-63 29.195 51.56 51.561 28.172-64.024z" fill="url(#paint0_linear_254_4176)"/><path transform="rotate(45 74.488 6.768)" fill="url(#paint1_linear_254_4176)" d="M74.488 6.768H98.15v63.26H74.488z"/></g><mask id="b" style="mask-type:alpha" maskUnits="userSpaceOnUse" x="17" y="63" width="18" height="17"><path d="M32.14 75.069c-1.567 1.566-6.664 3.31-10.56 4.472a2.769 2.769 0 0 1-3.474-3.473c1.162-3.897 2.906-8.994 4.472-10.56 2.645-2.644 6.928-2.648 9.569-.008 2.64 2.64 2.637 6.924-.008 9.569z" fill="#C4C4C4"/></mask><g mask="url(#b)"><path d="M32.14 75.069c-1.567 1.566-6.664 3.31-10.56 4.472a2.769 2.769 0 0 1-3.474-3.473c1.162-3.897 2.906-8.994 4.472-10.56 2.645-2.644 6.928-2.648 9.569-.008 2.64 2.64 2.637 6.924-.008 9.569z" fill="#FFD46F" fill-opacity=".5"/><g filter="url(#filter0_f_254_4176)"><circle cx="29.428" cy="68.289" r="7.164" transform="rotate(45 29.428 68.289)" fill="url(#paint2_linear_254_4176)"/></g></g><g filter="url(#filter1_b_254_4176)"><circle cx="63.902" cy="36.476" r="4.829" transform="rotate(45 63.902 36.476)" fill="#FFD46F"/></g><g filter="url(#filter2_b_254_4176)"><circle cx="64.585" cy="33.403" r="7.968" transform="rotate(45 64.585 33.403)" fill="#fff" fill-opacity=".5"/></g></g><defs><filter id="filter0_f_254_4176" x="17.764" y="56.625" width="23.327" height="23.327" filterUnits="userSpaceOnUse" color-interpolation-filters="sRGB"><feFlood flood-opacity="0" result="BackgroundImageFix"/><feBlend in="SourceGraphic" in2="BackgroundImageFix" result="shape"/><feGaussianBlur stdDeviation="2.25" result="effect1_foregroundBlur_254_4176"/></filter><filter id="filter1_b_254_4176" x="51.073" y="23.647" width="25.658" height="25.658" filterUnits="userSpaceOnUse" color-interpolation-filters="sRGB"><feFlood flood-opacity="0" result="BackgroundImageFix"/><feGaussianBlur in="BackgroundImage" stdDeviation="4"/><feComposite in2="SourceAlpha" operator="in" result="effect1_backgroundBlur_254_4176"/><feBlend in="SourceGraphic" in2="effect1_backgroundBlur_254_4176" result="shape"/></filter><filter id="filter2_b_254_4176" x="51.117" y="19.935" width="26.936" height="26.936" filterUnits="userSpaceOnUse" color-interpolation-filters="sRGB"><feFlood flood-opacity="0" result="BackgroundImageFix"/><feGaussianBlur in="BackgroundImage" stdDeviation="2.75"/><feComposite in2="SourceAlpha" operator="in" result="effect1_backgroundBlur_254_4176"/><feBlend in="SourceGraphic" in2="effect1_backgroundBlur_254_4176" result="shape"/></filter><linearGradient id="paint0_linear_254_4176" x1="30.104" y1="47.126" x2="84.365" y2="28.623" gradientUnits="userSpaceOnUse"><stop stop-color="#26BEFF"/><stop offset="1" stop-color="#3A83F1"/></linearGradient><linearGradient id="paint1_linear_254_4176" x1="91.44" y1="19.582" x2="68.227" y2="61.228" gradientUnits="userSpaceOnUse"><stop stop-color="#3A83F1"/><stop offset=".876" stop-color="#3A83F1" stop-opacity="0"/></linearGradient><linearGradient id="paint2_linear_254_4176" x1="28.984" y1="77.852" x2="29.292" y2="59.033" gradientUnits="userSpaceOnUse"><stop stop-color="#FFD46F"/><stop offset=".997" stop-color="#FFBC57"/></linearGradient><clipPath id="clip0_254_4176"><path fill="#fff" d="M0 0h100v100H0z"/></clipPath></defs></svg>