<svg width="100" height="100" fill="none" xmlns="http://www.w3.org/2000/svg"><g clip-path="url(#clip0_302_4215)"><g opacity=".7" filter="url(#filter0_f_302_4215)"><path fill-rule="evenodd" clip-rule="evenodd" d="M76.816 72.365l.001.002c6.474-8.082 8.3-19.961-.752-27.658-5.93-5.042-14.78-5.275-20.906-.473a3.46 3.46 0 0 0-.25-.203c-7.472-5.462-19.311-4.285-24.823 5.858-4.58 8.43-.609 19.365 7.34 26.775 5.204 4.852 11.17 8.889 15.029 11.045 1.647.921 3.628.844 5.267-.092 3.272-1.867 7.763-4.669 10.827-7.121 3.32-2.658 6.253-5.584 8.266-8.133z" fill="url(#paint0_radial_302_4215)"/></g><path d="M10.633 54.127C5.369 49.43 4.907 41.353 9.604 36.088L24.39 19.513c4.696-5.264 12.77-5.726 18.035-1.033L85.58 56.949 59.132 81.782a12.776 12.776 0 0 1-17.25.22L10.634 54.127z" fill="url(#paint1_radial_302_4215)"/><mask id="a" style="mask-type:alpha" maskUnits="userSpaceOnUse" x="6" y="15" width="80" height="71"><path d="M10.634 54.126c-5.266-4.697-5.726-12.773-1.03-18.038l14.787-16.575c4.695-5.264 12.769-5.727 18.034-1.033L85.58 56.947 59.132 81.781a12.776 12.776 0 0 1-17.25.22L10.634 54.127z" fill="#44BCFF"/></mask><g mask="url(#a)"><g style="mix-blend-mode:overlay" filter="url(#filter1_f_302_4215)"><path d="M11.342 53.332c-4.826-4.306-5.249-11.709-.943-16.535L25.185 20.22c4.304-4.825 11.705-5.249 16.532-.946l42.286 37.693-25.6 24.037a11.711 11.711 0 0 1-15.812.202L11.342 53.332z" stroke="#fff" stroke-width="2.129"/></g><g filter="url(#filter2_f_302_4215)"><path fill-rule="evenodd" clip-rule="evenodd" d="M61.977 79.11l-2.845 2.672a12.776 12.776 0 0 1-17.25.22L29.143 70.639c-5.245-4.68-5.725-12.716-1.076-17.986l9.33-10.576c4.669-5.291 12.742-5.797 18.033-1.129l13.033 11.498c5.291 4.668 5.797 12.741 1.129 18.032l-7.615 8.632z" fill="url(#paint2_radial_302_4215)"/></g><path d="M21.471 60.121l-4.413 5.015 13.768 12.579 20.518 10.35 2.19-6.481a12.776 12.776 0 0 0-3.766-13.77L39.4 58.882c-5.306-4.57-13.301-4.017-17.928 1.24z" fill="#022D9A"/><g opacity=".5"><mask id="b" fill="#fff"><path fill-rule="evenodd" clip-rule="evenodd" d="M74.15 67.68L59.132 81.782a12.776 12.776 0 0 1-17.25.22L10.633 54.127C5.368 49.43 4.907 41.353 9.604 36.088L24.39 19.513c4.696-5.264 12.77-5.726 18.035-1.033l7.374 6.573-11.41 9.934A9.03 9.03 0 0 0 50.04 48.78l3.166-2.593a5.536 5.536 0 0 1 7.272.224l9.843 9.128a12.776 12.776 0 0 1 3.971 11.094l-.142 1.046z"/></mask><path fill-rule="evenodd" clip-rule="evenodd" d="M74.15 67.68L59.132 81.782a12.776 12.776 0 0 1-17.25.22L10.633 54.127C5.368 49.43 4.907 41.353 9.604 36.088L24.39 19.513c4.696-5.264 12.77-5.726 18.035-1.033l7.374 6.573-11.41 9.934A9.03 9.03 0 0 0 50.04 48.78l3.166-2.593a5.536 5.536 0 0 1 7.272.224l9.843 9.128a12.776 12.776 0 0 1 3.971 11.094l-.142 1.046z" fill="url(#paint3_radial_302_4215)" fill-opacity=".01"/><path d="M74.15 67.68l.798.85.302-.282.056-.41-1.156-.158zM59.132 81.782l-.799-.85.799.85zm-17.25.22l.776-.87-.776.87zM10.633 54.127l.777-.871-.777.87zM9.604 36.088l.87.777-.87-.777zM24.39 19.513l.87.776-.87-.776zm18.035-1.033l.776-.87-.776.87zm7.374 6.573l.766.88.999-.87-.989-.88-.776.87zm-11.41 9.934l.766.88-.766-.88zm-.806 12.823l-.87.777.87-.777zm12.457.971l-.74-.902.74.902zm3.166-2.593l.739.903-.74-.903zm7.272.224l-.793.855.793-.855zm9.843 9.128l-.793.855.793-.855zm3.971 11.094l-1.156-.158 1.156.158zm-.94.195L58.332 80.931l1.598 1.701L74.948 68.53l-1.597-1.7zM58.332 80.931a11.61 11.61 0 0 1-15.675.2l-1.553 1.742c5.39 4.808 13.56 4.703 18.826-.24l-1.598-1.702zm-15.675.2L11.41 53.256l-1.553 1.741 31.248 27.876 1.553-1.742zM11.41 53.256c-4.785-4.268-5.203-11.607-.935-16.391L8.734 35.31c-5.126 5.747-4.624 14.56 1.123 19.686l1.553-1.741zm-.935-16.391L25.26 20.289l-1.742-1.553L8.734 35.311l1.74 1.554zM25.26 20.289c4.267-4.783 11.603-5.203 16.388-.938L43.2 17.61c-5.746-5.123-14.557-4.618-19.682 1.126l1.742 1.553zm16.388-.938l7.373 6.573 1.553-1.742-7.374-6.572-1.552 1.741zm7.384 4.822l-11.41 9.934 1.532 1.76 11.41-9.934-1.532-1.76zm-11.41 9.934c-4.284 3.73-4.694 10.242-.91 14.48l1.74-1.554a7.863 7.863 0 0 1 .702-11.166l-1.532-1.76zm-.91 14.48a10.196 10.196 0 0 0 14.066 1.097l-1.478-1.805a7.862 7.862 0 0 1-10.848-.846l-1.74 1.554zm14.066 1.097l3.166-2.593-1.479-1.805-3.165 2.593 1.478 1.805zm3.166-2.593a4.37 4.37 0 0 1 5.74.176l1.587-1.71a6.703 6.703 0 0 0-8.806-.271l1.479 1.805zm5.74.176l9.843 9.128 1.587-1.71-9.843-9.129-1.587 1.711zm9.843 9.128a11.61 11.61 0 0 1 3.608 10.081l2.312.316a13.943 13.943 0 0 0-4.333-12.108l-1.587 1.711zm3.608 10.081l-.142 1.046 2.312.316.142-1.046-2.312-.316z" fill="url(#paint4_radial_302_4215)" mask="url(#b)"/></g><mask id="c" style="mask-type:alpha" maskUnits="userSpaceOnUse" x="17" y="55" width="38" height="34"><path d="M21.471 60.121l-4.413 5.015 13.768 12.579 20.518 10.35 2.19-6.481a12.776 12.776 0 0 0-3.766-13.77L39.4 58.882c-5.306-4.57-13.301-4.017-17.928 1.24z" fill="#022D9A"/></mask><g mask="url(#c)"><g filter="url(#filter3_f_302_4215)"><path d="M21.471 60.121l-4.413 5.015 13.768 12.579 20.518 10.35 2.19-6.481a12.776 12.776 0 0 0-3.766-13.77L39.4 58.882c-5.306-4.57-13.301-4.017-17.928 1.24z" fill="url(#paint5_linear_302_4215)"/></g><g style="mix-blend-mode:overlay" opacity=".8" filter="url(#filter4_f_302_4215)"><path d="M31.436 76.83l-12.94-11.823 3.155-4.128c4.136-5.413 12-6.167 17.09-1.639l10.523 9.363a11.711 11.711 0 0 1 3.31 12.499l-1.846 5.46-19.292-9.732z" stroke="#fff" stroke-width="2.129"/></g></g></g><g style="mix-blend-mode:overlay" filter="url(#filter5_f_302_4215)"><path d="M9.086 39.712c-1.065-8.518 3.194-18.1 22.358-20.229 28.746 2.13 17.034 20.229 5.323 20.229-11.712 0-26.617 8.517-27.681 0z" fill="url(#paint6_linear_302_4215)"/></g><path d="M89.367 54.126c5.265-4.697 5.726-12.773 1.029-18.038L75.51 19.402c-4.657-5.22-12.646-5.725-17.923-1.13L38.39 34.986A9.03 9.03 0 0 0 50.04 48.78l3.166-2.593a5.536 5.536 0 0 1 7.272.223l9.843 9.129a12.776 12.776 0 0 1 3.971 11.094l-.146 1.07 15.22-13.578z" fill="url(#paint7_radial_302_4215)"/><mask id="d" style="mask-type:alpha" maskUnits="userSpaceOnUse" x="35" y="15" width="59" height="53"><path d="M89.367 54.127c5.265-4.697 5.726-12.774 1.029-18.039L75.51 19.402c-4.657-5.22-12.647-5.725-17.923-1.13L38.389 34.986A9.03 9.03 0 0 0 50.04 48.78l3.166-2.593a5.536 5.536 0 0 1 7.273.224l9.843 9.128a12.776 12.776 0 0 1 3.971 11.094l-.146 1.07 15.22-13.577z" fill="#022D9A"/></mask><g mask="url(#d)"><g filter="url(#filter6_f_302_4215)"><path d="M89.367 54.127c5.265-4.697 5.726-12.774 1.029-18.039L75.51 19.402c-4.657-5.22-12.647-5.725-17.923-1.13L38.389 34.986A9.03 9.03 0 0 0 50.04 48.78l3.166-2.593a5.536 5.536 0 0 1 7.273.224l9.843 9.128a12.776 12.776 0 0 1 3.971 11.094l-.146 1.07 15.22-13.577z" fill="url(#paint8_radial_302_4215)"/></g><g filter="url(#filter7_f_302_4215)"><path fill-rule="evenodd" clip-rule="evenodd" d="M61.077 55.57c-2.13 0-5.324 2.129-8.517 4.258-3.194 2.13-9.581 1.037-12.775-2.13-3.194-3.166-5.145-11.13-.001-15.301 4.076-3.305 16.081-6.453 21.293 0 22.358 27.681 20.921 32.592 4.259 15.302-.761-.79-2.13-2.13-4.259-2.13z" fill="url(#paint9_linear_302_4215)"/></g><g style="mix-blend-mode:overlay" opacity=".6" filter="url(#filter8_f_302_4215)"><path fill-rule="evenodd" clip-rule="evenodd" d="M41.276 36.164c1.79.582 9.65 6.596 11.75 9.259 2.1 2.663 6.993 3.674 10.543 1.888 3.55-1.787 4.438-7.204 1.258-12.116-2.52-3.892-12.483-16.513-18.628-12.518-26.36 17.137-27.814 24.076-9.083 14.11.855-.455 2.371-1.206 4.16-.623z" fill="url(#paint10_linear_302_4215)"/></g></g></g><defs><filter id="filter0_f_302_4215" x="8.983" y="21.613" width="92.451" height="85.914" filterUnits="userSpaceOnUse" color-interpolation-filters="sRGB"><feFlood flood-opacity="0" result="BackgroundImageFix"/><feBlend in="SourceGraphic" in2="BackgroundImageFix" result="shape"/><feGaussianBlur stdDeviation="9.582" result="effect1_foregroundBlur_302_4215"/></filter><filter id="filter1_f_302_4215" x="-2.155" y="6.724" width="96.252" height="87.037" filterUnits="userSpaceOnUse" color-interpolation-filters="sRGB"><feFlood flood-opacity="0" result="BackgroundImageFix"/><feBlend in="SourceGraphic" in2="BackgroundImageFix" result="shape"/><feGaussianBlur stdDeviation="4.259" result="effect1_foregroundBlur_302_4215"/></filter><filter id="filter2_f_302_4215" x="20.613" y="33.494" width="56.432" height="56.008" filterUnits="userSpaceOnUse" color-interpolation-filters="sRGB"><feFlood flood-opacity="0" result="BackgroundImageFix"/><feBlend in="SourceGraphic" in2="BackgroundImageFix" result="shape"/><feGaussianBlur stdDeviation="2.129" result="effect1_foregroundBlur_302_4215"/></filter><filter id="filter3_f_302_4215" x="8.54" y="47.269" width="54.184" height="49.314" filterUnits="userSpaceOnUse" color-interpolation-filters="sRGB"><feFlood flood-opacity="0" result="BackgroundImageFix"/><feBlend in="SourceGraphic" in2="BackgroundImageFix" result="shape"/><feGaussianBlur stdDeviation="4.259" result="effect1_foregroundBlur_302_4215"/></filter><filter id="filter4_f_302_4215" x="12.799" y="50.955" width="45.715" height="41.37" filterUnits="userSpaceOnUse" color-interpolation-filters="sRGB"><feFlood flood-opacity="0" result="BackgroundImageFix"/><feBlend in="SourceGraphic" in2="BackgroundImageFix" result="shape"/><feGaussianBlur stdDeviation="2.129" result="effect1_foregroundBlur_302_4215"/></filter><filter id="filter5_f_302_4215" x="2.547" y="13.095" width="53.21" height="36.79" filterUnits="userSpaceOnUse" color-interpolation-filters="sRGB"><feFlood flood-opacity="0" result="BackgroundImageFix"/><feBlend in="SourceGraphic" in2="BackgroundImageFix" result="shape"/><feGaussianBlur stdDeviation="3.194" result="effect1_foregroundBlur_302_4215"/></filter><filter id="filter6_f_302_4215" x="26.771" y="6.614" width="75.384" height="69.608" filterUnits="userSpaceOnUse" color-interpolation-filters="sRGB"><feFlood flood-opacity="0" result="BackgroundImageFix"/><feBlend in="SourceGraphic" in2="BackgroundImageFix" result="shape"/><feGaussianBlur stdDeviation="4.259" result="effect1_foregroundBlur_302_4215"/></filter><filter id="filter7_f_302_4215" x="28.099" y="30.13" width="58.277" height="46.152" filterUnits="userSpaceOnUse" color-interpolation-filters="sRGB"><feFlood flood-opacity="0" result="BackgroundImageFix"/><feBlend in="SourceGraphic" in2="BackgroundImageFix" result="shape"/><feGaussianBlur stdDeviation="4.259" result="effect1_foregroundBlur_302_4215"/></filter><filter id="filter8_f_302_4215" x="15.999" y="13.388" width="59.304" height="43.337" filterUnits="userSpaceOnUse" color-interpolation-filters="sRGB"><feFlood flood-opacity="0" result="BackgroundImageFix"/><feBlend in="SourceGraphic" in2="BackgroundImageFix" result="shape"/><feGaussianBlur stdDeviation="4.259" result="effect1_foregroundBlur_302_4215"/></filter><radialGradient id="paint0_radial_302_4215" cx="0" cy="0" r="1" gradientUnits="userSpaceOnUse" gradientTransform="matrix(54.804 -33.88069 33.62586 54.39181 31.777 80.766)"><stop offset=".119" stop-color="#44BCFF"/><stop offset=".762" stop-color="#2F55B1"/></radialGradient><radialGradient id="paint1_radial_302_4215" cx="0" cy="0" r="1" gradientUnits="userSpaceOnUse" gradientTransform="matrix(-102.20731 -4.25874 3.4399 -82.55576 71.75 46.1)"><stop offset=".313" stop-color="#44BCFF"/><stop offset="1" stop-color="#2F55B1"/></radialGradient><radialGradient id="paint2_radial_302_4215" cx="0" cy="0" r="1" gradientUnits="userSpaceOnUse" gradientTransform="matrix(-84.10824 -18.09881 16.94103 -78.7278 80.266 80.169)"><stop stop-color="#44BCFF"/><stop offset="1" stop-color="#0032AC"/></radialGradient><radialGradient id="paint3_radial_302_4215" cx="0" cy="0" r="1" gradientUnits="userSpaceOnUse" gradientTransform="rotate(-47.151 115.55 59.086) scale(100.96 88.2055)"><stop offset=".292" stop-color="#32C1F7"/><stop offset=".991" stop-color="#005BC7"/></radialGradient><radialGradient id="paint4_radial_302_4215" cx="0" cy="0" r="1" gradientUnits="userSpaceOnUse" gradientTransform="rotate(146.382 26.564 38.116) scale(58.4882 29.6384)"><stop offset=".068" stop-color="#DEFDFF"/><stop offset=".527" stop-color="#74E6FF" stop-opacity="0"/></radialGradient><linearGradient id="paint5_linear_302_4215" x1="76.702" y1="89.098" x2=".862" y2="108.22" gradientUnits="userSpaceOnUse"><stop offset=".276" stop-color="#032DB9"/><stop offset="1" stop-color="#44BCFF"/></linearGradient><linearGradient id="paint6_linear_302_4215" x1="46.548" y1="39.59" x2="-7.8" y2="45.287" gradientUnits="userSpaceOnUse"><stop stop-color="#65C7FF"/><stop offset=".786" stop-color="#65C7FF" stop-opacity="0"/></linearGradient><radialGradient id="paint7_radial_302_4215" cx="0" cy="0" r="1" gradientUnits="userSpaceOnUse" gradientTransform="rotate(-167.934 48.27 20.865) scale(64.0302 66.0029)"><stop offset=".115" stop-color="#44BCFF"/><stop offset=".891" stop-color="#0032AC"/></radialGradient><radialGradient id="paint8_radial_302_4215" cx="0" cy="0" r="1" gradientUnits="userSpaceOnUse" gradientTransform="rotate(71.821 25.086 45.157) scale(64.4385 53.709)"><stop offset=".115" stop-color="#44BCFF"/><stop offset=".891" stop-color="#0032AC"/></radialGradient><linearGradient id="paint9_linear_302_4215" x1="36.616" y1="53.978" x2="49.956" y2="28.639" gradientUnits="userSpaceOnUse"><stop offset=".096" stop-color="#002687"/><stop offset="1" stop-color="#0035BB" stop-opacity=".94"/></linearGradient><linearGradient id="paint10_linear_302_4215" x1="62.41" y1="35.227" x2="56.947" y2="17.017" gradientUnits="userSpaceOnUse"><stop offset=".096" stop-color="#022D9A"/><stop offset="1" stop-color="#022D9A" stop-opacity="0"/></linearGradient><clipPath id="clip0_302_4215"><path fill="#fff" d="M0 0h100v100H0z"/></clipPath></defs></svg>