<svg width="40" height="40" fill="none" xmlns="http://www.w3.org/2000/svg"><g clip-path="url(#clip0_3_3437)" fill-rule="evenodd" clip-rule="evenodd"><path d="M20 .043c11.039 0 20 8.952 20 19.979S31.039 40 20 40 0 31.049 0 20.022C0 8.995 8.961.043 20 .043z" fill="#ED6CCD"/><path d="M16 9a3 3 0 0 0-3 3v16a3 3 0 0 0 3 3h8a3 3 0 0 0 3-3V12a3 3 0 0 0-3-3h-8zm7.26 9.65a1 1 0 0 0-1.52-1.3l-2.268 2.646-1.083-1.174a1 1 0 1 0-1.47 1.356l1.846 2a1 1 0 0 0 1.494-.027l3-3.5z" fill="#fff"/></g><defs><clipPath id="clip0_3_3437"><path fill="#fff" d="M0 0h40v40H0z"/></clipPath></defs></svg>