<svg width="51" height="20" fill="none" xmlns="http://www.w3.org/2000/svg"><path d="M.75 20h8.736c4.211 0 6.823-2.16 6.823-5.62v-.027c0-2.583-1.997-4.525-4.73-4.73v-.082c2.16-.287 3.814-2.133 3.814-4.293v-.027c0-3.035-2.338-4.95-6.057-4.95H.75V20zM8.27 3.334c1.927 0 3.062.902 3.062 2.475v.027c0 1.709-1.258 2.68-3.568 2.68H4.879V3.334h3.39zm-.028 7.984c2.53 0 3.842.971 3.842 2.776v.027c0 1.832-1.299 2.803-3.664 2.803H4.879v-5.606h3.363zM23.03 20h4.129V3.676h5.701V.27H17.315v3.405h5.715V20zm12.573 0h8.094c4.047 0 6.836-2.488 6.836-6.207v-.027c0-3.637-2.858-6.084-6.973-6.084h-3.828V3.676h8.983V.27H35.602V20zm4.129-3.295v-5.879h2.926c2.31 0 3.664 1.04 3.664 2.94v.027c0 1.887-1.354 2.912-3.65 2.912h-2.94z" fill="#E4E8EE"/></svg>